<?xml version="1.0" encoding="UTF-8"?>
<svg id="Capa_2" data-name="Capa 2" xmlns="http://www.w3.org/2000/svg" viewBox="0 0 800 800">
  <defs>
    <style>
      .cls-1 {
        font-family: CaviarDreams-Bold, 'Caviar Dreams';
        font-size: 105.61px;
        font-weight: 700;
      }

      .cls-1, .cls-2 {
        fill: #0abab5;
      }
    </style>
  </defs>
  <g>
    <path class="cls-2" d="M118.35,471.6c-28.76,0-52.16-23.4-52.16-52.16v-38.88c0-28.76,23.4-52.16,52.16-52.16s52.16,23.4,52.16,52.16v38.88c0,28.76-23.4,52.16-52.16,52.16ZM118.35,332.75c-26.36,0-47.81,21.45-47.81,47.81v38.88c0,26.36,21.45,47.81,47.81,47.81s47.81-21.45,47.81-47.81v-38.88c0-26.36-21.45-47.81-47.81-47.81Z"/>
    <path class="cls-2" d="M157.8,447.95c-11.77-11.61-28.02-17.73-43.47-16.37-14.22,1.52-26.87,7.33-35.58,16.33l-3.13-3.03c9.42-9.74,23.02-16,38.29-17.64,16.74-1.48,34.27,5.1,46.94,17.6l-3.06,3.1Z"/>
    <g>
      <path class="cls-2" d="M100.22,433.23c-1.2,0-2.18-.97-2.18-2.18v-24.29c0-1.2.97-2.18,2.18-2.18s2.18.97,2.18,2.18v24.29c0,1.2-.97,2.18-2.18,2.18Z"/>
      <path class="cls-2" d="M137.25,433.23c-1.2,0-2.18-.97-2.18-2.18v-23.81c0-1.2.97-2.18,2.18-2.18s2.18.97,2.18,2.18v23.81c0,1.2-.97,2.18-2.18,2.18Z"/>
      <path class="cls-2" d="M140.95,409.98c-.39,0-.79-.11-1.15-.33l-19.72-12.37c-1.14-.72-2.62-.72-3.77,0l-19.6,12.36c-1.02.64-2.36.34-3-.68s-.34-2.36.68-3l19.6-12.36c2.55-1.61,5.85-1.61,8.4-.01l19.72,12.37c1.02.64,1.32,1.98.69,3-.41.66-1.12,1.02-1.84,1.02Z"/>
    </g>
    <g>
      <path class="cls-2" d="M123.59,427.95h-10.67v-7.81c0-2.81,2.28-5.1,5.1-5.1h.48c2.81,0,5.1,2.28,5.1,5.1v7.81Z"/>
      <circle class="cls-2" cx="118.25" cy="409.12" r="4.66"/>
    </g>
    <path class="cls-2" d="M68.42,408.83c-.59,0-1.17-.24-1.6-.7-.81-.88-.76-2.26.13-3.07.37-.35,3.33-3.44,6.18-6.42,2.92-3.05,6.22-6.51,8.71-9.07,2.74-2.83,7.17-2.96,10.07-.29l12.01,11c.89.81.95,2.19.13,3.07-.81.89-2.19.95-3.07.13l-12.01-11c-1.16-1.06-2.92-1.01-4.01.12-2.48,2.56-5.78,6.01-8.69,9.05-3.9,4.08-5.95,6.22-6.38,6.62-.42.38-.95.58-1.47.58Z"/>
    <path class="cls-2" d="M167.77,408.83c-.53,0-1.05-.19-1.47-.57-.73-.67-8.94-9.15-15.71-16.14-.81-.83-2.11-.87-2.96-.08l-12.42,11.44c-.88.81-2.26.76-3.07-.13-.81-.88-.76-2.26.13-3.07l12.42-11.44c2.6-2.4,6.58-2.29,9.04.26,9.21,9.52,15.01,15.49,15.53,15.97.88.82.94,2.19.12,3.07-.43.46-1.01.7-1.6.7Z"/>
    <path class="cls-2" d="M143.73,394c-1.2,0-2.18-.97-2.18-2.18,0-12.85-10.45-23.3-23.3-23.3s-23.3,10.45-23.3,23.3c0,1.2-.97,2.18-2.18,2.18s-2.18-.97-2.18-2.18c0-15.25,12.4-27.65,27.65-27.65s27.65,12.4,27.65,27.65c0,1.2-.97,2.18-2.18,2.18Z"/>
    <path class="cls-2" d="M86.97,381.57h-18.37c-1.2,0-2.18-.97-2.18-2.18s.97-2.18,2.18-2.18h18.37c1.2,0,2.18.97,2.18,2.18s-.97,2.18-2.18,2.18Z"/>
    <path class="cls-2" d="M99.39,365.64c-.54,0-1.09-.2-1.51-.61l-17.62-16.94c-.87-.83-.89-2.21-.06-3.08.83-.87,2.21-.89,3.08-.06l17.62,16.94c.87.83.89,2.21.06,3.08-.43.44-1,.67-1.57.67Z"/>
    <path class="cls-2" d="M167.91,381.57h-18.37c-1.2,0-2.18-.97-2.18-2.18s.97-2.18,2.18-2.18h18.37c1.2,0,2.18.97,2.18,2.18s-.97,2.18-2.18,2.18Z"/>
    <path class="cls-2" d="M137.12,365.64c-.57,0-1.14-.22-1.57-.67-.83-.87-.81-2.24.06-3.08l17.62-16.94c.87-.83,2.24-.81,3.08.06.83.87.81,2.24-.06,3.08l-17.62,16.94c-.42.41-.96.61-1.51.61Z"/>
    <path class="cls-2" d="M118.63,360.8c-1.2,0-2.18-.97-2.18-2.18v-28.05c0-1.2.97-2.18,2.18-2.18s2.18.97,2.18,2.18v28.05c0,1.2-.97,2.18-2.18,2.18Z"/>
  </g>
  <text class="cls-1" transform="translate(192.14 433.77)"><tspan x="0" y="0">TURQUESA</tspan></text>
</svg>